<?xml version="1.0" encoding="UTF-8"?>
<!-- Generator: Adobe Illustrator 15.1.0, SVG Export Plug-In . SVG Version: 6.00 Build 0)  -->
<!DOCTYPE svg PUBLIC "-//W3C//DTD SVG 1.1//EN" "http://www.w3.org/Graphics/SVG/1.1/DTD/svg11.dtd">
<svg version="1.1" id="Calque_1" xmlns="http://www.w3.org/2000/svg" xmlns:xlink="http://www.w3.org/1999/xlink" x="0px" y="0px" width="304.242px" height="307.725px" viewBox="0 0 304.242 307.725" enable-background="new 0 0 304.242 307.725" xml:space="preserve">
<g>
	<g>
		<path stroke="#000000" stroke-width="1.2718" stroke-miterlimit="10" d="M211.515,176.371l-0.09,25.779    c0,0.904-0.407,1.756-1.119,2.327c-0.533,0.42-1.184,0.65-1.856,0.65c-0.216,0-0.432-0.026-0.649-0.076l-42.108-9.45    c-2.479,5.175-7.759,8.75-13.888,8.75c-6.079,0-11.332-3.535-13.824-8.648l-42.071,9.462c-0.216,0.05-0.432,0.076-0.661,0.076    c-0.661,0-1.322-0.23-1.857-0.662c-0.712-0.571-1.119-1.423-1.119-2.328l0.09-25.791c0.013-0.903,0.42-1.756,1.131-2.315    c0.701-0.571,1.629-0.788,2.507-0.585l41.688,9.361c2.341-5.482,7.783-9.31,14.117-9.31c6.32,0,11.752,3.815,14.116,9.271    l41.97-9.437c0.878-0.19,1.806,0.026,2.519,0.585C211.107,174.604,211.527,175.456,211.515,176.371z"/>
	</g>
	<g>
		<g>
			<path fill="#FFFFFF" d="M96.697,162.852c-1.791,0-3.275-1.34-3.453-3.115c-0.062-0.626-1.377-15.565,9.93-28.108     c10.08-11.172,26.655-16.837,49.266-16.837c22.598,0,39.091,5.663,49.018,16.831c11.298,12.708,9.556,27.993,9.534,28.144     c-0.208,1.771-1.688,3.086-3.444,3.086H96.697z"/>
			<path d="M152.439,116.062c22.22,0,38.393,5.52,48.067,16.404c11.003,12.377,9.243,26.983,9.218,27.176     c-0.129,1.104-1.065,1.938-2.178,1.938H96.697c-1.116,0-2.076-0.866-2.188-1.964c-0.06-0.607-1.326-15.005,9.608-27.135     C113.947,121.586,130.205,116.062,152.439,116.062 M152.439,113.519c-22.981,0-39.884,5.812-50.21,17.258     c-11.752,13.036-10.313,28.438-10.251,29.086c0.241,2.417,2.289,4.261,4.719,4.261h110.85c2.402,0,4.425-1.806,4.704-4.184     c0.09-0.648,1.769-16.101-9.843-29.163C192.234,119.331,175.42,113.519,152.439,113.519L152.439,113.519z"/>
		</g>
	</g>
	<g>
		<path d="M165.539,76.943l-6.041,5.888l1.425,8.317c0.051,0.229-0.052,0.471-0.242,0.61c-0.204,0.153-0.457,0.166-0.674,0.051    l-7.465-3.917l-7.466,3.917c-0.09,0.051-0.191,0.076-0.293,0.076c-0.127,0-0.268-0.039-0.382-0.127    c-0.191-0.14-0.292-0.382-0.24-0.61l1.423-8.317l-6.041-5.888c-0.178-0.166-0.241-0.42-0.165-0.649    c0.077-0.229,0.28-0.395,0.521-0.432l8.344-1.208l3.726-7.567c0.114-0.217,0.331-0.356,0.573-0.356c0.24,0,0.457,0.14,0.571,0.356    l3.727,7.567l8.343,1.208c0.242,0.038,0.445,0.204,0.521,0.432C165.781,76.523,165.717,76.777,165.539,76.943z"/>
	</g>
	<g>
		<path d="M123.205,80.535l-2.987,7.889l4.807,6.937c0.143,0.186,0.152,0.448,0.038,0.656c-0.119,0.224-0.344,0.343-0.589,0.33    l-8.421-0.395l-5.111,6.706c-0.059,0.084-0.141,0.15-0.232,0.193c-0.115,0.054-0.258,0.078-0.398,0.046    c-0.233-0.046-0.427-0.223-0.479-0.451l-2.224-8.14l-7.964-2.785c-0.231-0.075-0.396-0.277-0.424-0.518    c-0.027-0.239,0.087-0.476,0.29-0.612l7.051-4.621l0.18-8.433c0.013-0.245,0.149-0.463,0.367-0.565    c0.219-0.102,0.475-0.067,0.67,0.081l6.575,5.284l8.071-2.431c0.234-0.068,0.489-0.004,0.656,0.171    C123.247,80.052,123.297,80.309,123.205,80.535z"/>
	</g>
	<g>
		<path d="M205.425,91.578l-7.963,2.785l-2.225,8.14c-0.05,0.229-0.245,0.405-0.478,0.451c-0.248,0.053-0.484-0.043-0.631-0.239    l-5.11-6.705l-8.422,0.395c-0.102,0.01-0.205-0.01-0.298-0.053c-0.114-0.053-0.225-0.149-0.292-0.277    c-0.114-0.208-0.104-0.47,0.04-0.656l4.805-6.937l-2.985-7.889c-0.092-0.226-0.042-0.483,0.124-0.658    c0.165-0.175,0.421-0.238,0.654-0.171l8.073,2.431l6.573-5.284c0.196-0.146,0.451-0.183,0.671-0.081    c0.219,0.102,0.355,0.32,0.368,0.565l0.179,8.433l7.051,4.62c0.203,0.137,0.317,0.374,0.29,0.612    C205.821,91.301,205.656,91.503,205.425,91.578z"/>
	</g>
	<g>
		<g>
			<path fill="#FFFFFF" d="M152.439,239.723c-22.115,0-57.035-2.515-57.378-2.54c-1.096-0.08-1.951-0.996-1.951-2.089v-15.478     c0-1.107,0.864-2.024,1.968-2.087c3.242-0.217,42.781-2.555,57.361-2.555c13.97,0,49.48,2.114,56.457,2.539l0.265,0.015     c1.106,0.064,1.971,0.981,1.971,2.089v15.478c0,1.085-0.854,2.002-1.944,2.089C205.575,237.445,173.567,239.723,152.439,239.723z     "/>
			<path d="M152.439,216.246c13.933,0,49.409,2.113,56.379,2.536l0.274,0.016c0.431,0.025,0.768,0.384,0.768,0.818v15.478     c0,0.426-0.339,0.787-0.798,0.823c-3.574,0.26-35.539,2.534-56.623,2.534c-22.046,0-56.942-2.511-57.29-2.538     c-0.431-0.03-0.768-0.39-0.768-0.819v-15.478c0-0.435,0.338-0.793,0.793-0.819C98.401,218.581,137.89,216.246,152.439,216.246      M152.439,213.702c-15.186,0-55.718,2.442-57.434,2.556c-1.781,0.102-3.167,1.577-3.167,3.358v15.478     c0,1.755,1.361,3.23,3.128,3.357c0.345,0.026,35.344,2.543,57.473,2.543s56.493-2.518,56.85-2.543     c1.755-0.141,3.114-1.602,3.114-3.357v-15.478c0-1.781-1.386-3.256-3.165-3.358C207.547,216.156,167.624,213.702,152.439,213.702     L152.439,213.702z"/>
		</g>
	</g>
	<g>
		<path d="M127.918,133.166c-2.66,2.736-5.634,4.159-6.644,3.176c-1.011-0.982,0.328-3.996,2.988-6.731    c2.657-2.736,6.473-3.342,6.643-3.177C131.076,126.6,130.578,130.429,127.918,133.166z"/>
		<path d="M154.12,133.166c-2.66,2.736-5.634,4.159-6.644,3.176c-1.011-0.982,0.328-3.996,2.988-6.731    c2.657-2.736,6.472-3.342,6.643-3.177C157.278,126.6,156.78,130.429,154.12,133.166z"/>
		<path d="M180.322,133.166c-2.66,2.736-5.634,4.159-6.644,3.176c-1.011-0.982,0.328-3.996,2.988-6.731    c2.656-2.736,6.472-3.342,6.643-3.177C183.48,126.6,182.982,130.429,180.322,133.166z"/>
	</g>
</g>
</svg>