<?xml version="1.0" encoding="utf-8"?>
<!-- Generator: Adobe Illustrator 15.1.0, SVG Export Plug-In . SVG Version: 6.00 Build 0)  -->
<!DOCTYPE svg PUBLIC "-//W3C//DTD SVG 1.1//EN" "http://www.w3.org/Graphics/SVG/1.1/DTD/svg11.dtd">
<svg version="1.1" id="Calque_1" xmlns="http://www.w3.org/2000/svg" xmlns:xlink="http://www.w3.org/1999/xlink" x="0px" y="0px"
	 width="595.28px" height="195.31px" viewBox="0 0 595.28 195.31" enable-background="new 0 0 595.28 195.31" xml:space="preserve">
<g>
	<g>
		<path stroke="#000000" stroke-width="0.7974" stroke-miterlimit="10" d="M126.076,125.128l-0.056,16.164
			c0,0.567-0.255,1.101-0.702,1.459c-0.334,0.263-0.742,0.407-1.164,0.407c-0.136,0-0.271-0.017-0.407-0.047l-26.403-5.926
			c-1.555,3.245-4.865,5.486-8.708,5.486c-3.812,0-7.105-2.216-8.668-5.422l-26.379,5.933c-0.135,0.031-0.271,0.048-0.415,0.048
			c-0.414,0-0.829-0.144-1.164-0.416c-0.446-0.358-0.702-0.892-0.702-1.459l0.056-16.172c0.008-0.566,0.263-1.101,0.709-1.451
			c0.439-0.358,1.021-0.494,1.571-0.367l26.14,5.87c1.468-3.438,4.88-5.837,8.852-5.837c3.963,0,7.369,2.392,8.851,5.813
			l26.316-5.917c0.55-0.119,1.132,0.016,1.579,0.367C125.821,124.02,126.084,124.554,126.076,125.128z"/>
	</g>
	<g>
		<g>
			<path fill="#FFFFFF" d="M54.083,116.651c-1.123,0-2.054-0.84-2.165-1.954c-0.039-0.393-0.863-9.759,6.226-17.624
				c6.321-7.005,16.714-10.558,30.891-10.558c14.169,0,24.51,3.551,30.735,10.554c7.084,7.969,5.992,17.552,5.979,17.646
				c-0.131,1.11-1.059,1.935-2.161,1.935H54.083z"/>
			<path d="M89.035,87.313c13.932,0,24.073,3.461,30.139,10.286c6.899,7.761,5.795,16.919,5.78,17.04
				c-0.081,0.692-0.668,1.215-1.366,1.215H54.083c-0.7,0-1.302-0.543-1.371-1.231c-0.038-0.381-0.832-9.409,6.024-17.014
				C64.899,90.776,75.093,87.313,89.035,87.313 M89.035,85.718c-14.41,0-25.008,3.644-31.483,10.821
				c-7.369,8.173-6.467,17.831-6.427,18.237c0.151,1.515,1.436,2.671,2.958,2.671h69.505c1.507,0,2.775-1.132,2.95-2.624
				c0.056-0.406,1.109-10.096-6.172-18.285C113.987,89.362,103.444,85.718,89.035,85.718L89.035,85.718z"/>
		</g>
	</g>
	<g>
		<path d="M97.249,62.784l-3.788,3.692l0.894,5.215c0.032,0.143-0.032,0.295-0.152,0.383c-0.128,0.096-0.287,0.104-0.422,0.032
			l-4.681-2.456l-4.681,2.456c-0.056,0.032-0.12,0.048-0.184,0.048c-0.08,0-0.167-0.024-0.239-0.08
			c-0.12-0.088-0.183-0.24-0.151-0.383l0.893-5.215l-3.788-3.692c-0.111-0.104-0.151-0.263-0.104-0.407
			c0.048-0.143,0.176-0.247,0.327-0.271l5.232-0.757l2.336-4.745c0.072-0.136,0.207-0.224,0.359-0.224
			c0.151,0,0.287,0.087,0.358,0.224l2.337,4.745l5.231,0.757c0.152,0.024,0.28,0.128,0.327,0.271
			C97.4,62.521,97.36,62.68,97.249,62.784z"/>
	</g>
	<g>
		<path d="M70.704,65.037l-1.873,4.947l3.014,4.349c0.09,0.117,0.096,0.281,0.024,0.411c-0.075,0.141-0.216,0.215-0.369,0.207
			l-5.281-0.248l-3.205,4.205c-0.037,0.053-0.088,0.094-0.146,0.121c-0.073,0.034-0.162,0.049-0.25,0.029
			c-0.146-0.029-0.268-0.139-0.3-0.283l-1.395-5.104l-4.993-1.746c-0.145-0.047-0.249-0.174-0.266-0.325
			c-0.017-0.15,0.055-0.298,0.182-0.384l4.421-2.897l0.113-5.288c0.008-0.154,0.093-0.291,0.23-0.354
			c0.137-0.063,0.297-0.042,0.42,0.051l4.123,3.313l5.061-1.524c0.147-0.042,0.307-0.002,0.411,0.107
			C70.73,64.733,70.762,64.895,70.704,65.037z"/>
	</g>
	<g>
		<path d="M122.258,71.96l-4.993,1.746l-1.395,5.104c-0.031,0.143-0.154,0.254-0.299,0.282c-0.156,0.034-0.304-0.027-0.396-0.149
			l-3.205-4.204l-5.281,0.248c-0.064,0.006-0.128-0.006-0.187-0.034c-0.071-0.033-0.141-0.093-0.183-0.174
			c-0.072-0.13-0.065-0.294,0.025-0.411l3.013-4.349l-1.872-4.947c-0.058-0.142-0.026-0.303,0.078-0.413
			c0.104-0.11,0.264-0.149,0.41-0.107l5.062,1.524l4.122-3.313c0.123-0.092,0.283-0.114,0.42-0.05
			c0.137,0.064,0.223,0.201,0.23,0.354l0.112,5.288l4.421,2.897c0.127,0.085,0.199,0.234,0.182,0.384
			C122.506,71.787,122.403,71.914,122.258,71.96z"/>
	</g>
	<g>
		<g>
			<path fill="#FFFFFF" d="M89.035,164.851c-13.867,0-35.763-1.577-35.978-1.593c-0.687-0.05-1.224-0.625-1.224-1.31v-9.705
				c0-0.694,0.542-1.269,1.233-1.309c2.034-0.136,26.825-1.602,35.968-1.602c8.759,0,31.025,1.325,35.399,1.592l0.166,0.009
				c0.694,0.041,1.236,0.615,1.236,1.31v9.705c0,0.681-0.536,1.255-1.22,1.31C122.352,163.423,102.282,164.851,89.035,164.851z"/>
			<path d="M89.035,150.13c8.736,0,30.98,1.325,35.351,1.59l0.172,0.01c0.271,0.016,0.481,0.241,0.481,0.513v9.705
				c0,0.267-0.213,0.494-0.5,0.516c-2.241,0.163-22.284,1.589-35.504,1.589c-13.824,0-35.704-1.575-35.922-1.591
				c-0.27-0.019-0.481-0.244-0.481-0.514v-9.705c0-0.272,0.212-0.498,0.497-0.514C55.151,151.594,79.912,150.13,89.035,150.13
				 M89.035,148.535c-9.522,0-34.937,1.531-36.013,1.603c-1.117,0.064-1.986,0.989-1.986,2.105v9.705c0,1.1,0.854,2.025,1.962,2.105
				c0.215,0.016,22.161,1.595,36.037,1.595c13.875,0,35.422-1.579,35.646-1.595c1.101-0.088,1.953-1.005,1.953-2.105v-9.705
				c0-1.117-0.869-2.042-1.985-2.105C123.588,150.074,98.556,148.535,89.035,148.535L89.035,148.535z"/>
		</g>
	</g>
	<g>
		<path d="M194.597,72.786c2.215,0,4.234,0.425,6.053,1.276c1.819,0.851,3.366,2,4.646,3.447c1.279,1.447,2.259,3.135,2.941,5.063
			c0.683,1.93,1.024,3.972,1.024,6.128c0,1.136-0.149,2.27-0.444,3.404c-0.297,1.136-0.75,2.143-1.362,3.021
			c-0.611,0.88-1.385,1.604-2.321,2.17c-0.936,0.567-2.058,0.851-3.362,0.851c-1.191,0-2.355-0.222-3.49-0.666
			c-1.135-0.444-2.184-1.016-3.148-1.717l1.021-1.702c0.793,0.455,1.631,0.908,2.511,1.362c0.879,0.455,1.772,0.681,2.681,0.681
			c1.021,0,1.915-0.225,2.681-0.677c0.766-0.452,1.375-1.031,1.83-1.737c0.453-0.705,0.793-1.496,1.021-2.371
			c0.227-0.875,0.34-1.764,0.34-2.668c0-1.016-0.142-2.089-0.425-3.218c-0.285-1.129-0.696-2.173-1.234-3.133
			c-0.54-0.96-1.234-1.765-2.085-2.413c-0.851-0.649-1.873-0.975-3.064-0.975c-2.951,0-5.604,0.809-7.957,2.426
			c-2.355,1.617-4.413,3.717-6.17,6.298c-1.76,2.583-3.264,5.504-4.512,8.767c-1.248,3.263-2.27,6.568-3.063,9.915
			c-0.795,3.348-1.362,6.568-1.702,9.659c-0.34,3.093-0.511,5.746-0.511,7.958c0,3.349,0.312,6.923,0.937,10.724
			c0.623,3.802,1.715,7.305,3.276,10.51c1.56,3.207,3.715,5.859,6.468,7.958c2.751,2.099,6.256,3.149,10.511,3.149
			c2.269,0,4.283-0.54,6.043-1.617c1.758-1.079,3.304-2.483,4.638-4.213c1.333-1.73,2.481-3.715,3.447-5.958
			c0.964-2.241,1.788-4.51,2.468-6.809c0.681-2.298,1.248-4.539,1.702-6.723c0.453-2.184,0.851-4.128,1.191-5.831l2.043-0.255
			c-0.455,3.008-1.051,6.1-1.788,9.277c-0.738,3.178-1.674,6.27-2.809,9.276c-1.136,3.007-2.525,5.844-4.17,8.511
			c-1.646,2.666-3.575,5.007-5.787,7.021c-2.213,2.013-4.766,3.617-7.66,4.809c-2.894,1.191-6.185,1.787-9.873,1.787
			c-3.291,0-6.2-0.638-8.724-1.915c-2.524-1.277-4.68-2.994-6.467-5.149c-1.788-2.157-3.277-4.625-4.469-7.404
			c-1.191-2.779-2.142-5.673-2.851-8.682c-0.71-3.006-1.207-6-1.49-8.979c-0.285-2.978-0.425-5.744-0.425-8.297
			c0-3.234,0.212-6.779,0.639-10.639c0.426-3.858,1.122-7.73,2.089-11.617c0.966-3.886,2.245-7.63,3.836-11.234
			c1.591-3.603,3.566-6.809,5.925-9.617c2.36-2.809,5.145-5.049,8.355-6.723C186.765,73.623,190.446,72.786,194.597,72.786z"/>
		<path d="M234.112,148.702c1.077,0,2.127-0.468,3.149-1.405c1.021-0.936,2-2.14,2.936-3.617c0.936-1.475,1.801-3.106,2.596-4.894
			c0.794-1.788,1.532-3.545,2.213-5.277c0.681-1.73,1.262-3.333,1.744-4.809c0.481-1.474,0.865-2.608,1.149-3.404l1.957,0.085
			c-0.511,1.532-1.092,3.292-1.744,5.277c-0.653,1.986-1.377,4.015-2.17,6.085c-0.795,2.072-1.703,4.114-2.723,6.128
			c-1.022,2.014-2.143,3.802-3.362,5.362c-1.221,1.562-2.582,2.823-4.085,3.787c-1.504,0.964-3.164,1.447-4.979,1.447
			c-2.213,0-4.143-0.638-5.788-1.915c-1.646-1.276-3.079-2.949-4.298-5.021c-1.221-2.071-2.227-4.396-3.021-6.979
			c-0.795-2.582-1.434-5.163-1.915-7.746c-0.482-2.581-0.823-5.049-1.021-7.404c-0.199-2.353-0.298-4.326-0.298-5.915
			c0-2.156,0.141-4.936,0.426-8.34c0.283-3.404,0.766-7.021,1.447-10.852c0.681-3.83,1.588-7.66,2.724-11.49
			c1.134-3.829,2.524-7.29,4.17-10.383c1.645-3.092,3.603-5.603,5.873-7.532c2.269-1.928,4.907-2.894,7.916-2.894
			c1.191,0,2.127,0.242,2.808,0.723c0.681,0.483,1.219,1.093,1.617,1.83c0.396,0.738,0.651,1.589,0.766,2.553
			c0.113,0.966,0.17,1.902,0.17,2.809c0,3.859-0.468,7.532-1.404,11.021c-0.937,3.489-2.256,6.823-3.958,10
			c-1.703,3.179-3.717,6.17-6.043,8.979c-2.327,2.809-4.88,5.462-7.66,7.958c0,1.079,0.056,2.71,0.17,4.895
			c0.113,2.185,0.326,4.595,0.639,7.233c0.311,2.639,0.723,5.362,1.233,8.171c0.511,2.809,1.177,5.362,2,7.659
			c0.822,2.299,1.788,4.185,2.894,5.66C231.346,147.965,232.636,148.702,234.112,148.702z M240.495,74.828c0-0.226,0-0.596,0-1.106
			s-0.042-1.007-0.127-1.489c-0.086-0.481-0.228-0.907-0.426-1.277c-0.199-0.369-0.498-0.553-0.893-0.553
			c-1.533,0-2.965,0.823-4.298,2.468c-1.334,1.646-2.568,3.745-3.703,6.298c-1.135,2.553-2.156,5.376-3.063,8.468
			c-0.908,3.093-1.702,6.115-2.383,9.064c-0.681,2.951-1.221,5.631-1.617,8.042c-0.398,2.412-0.654,4.185-0.767,5.319
			c1.417-1.134,2.779-2.411,4.085-3.83c1.304-1.417,2.524-2.864,3.659-4.34c2.95-3.915,5.277-8.198,6.979-12.852
			C239.645,84.389,240.495,79.651,240.495,74.828z"/>
		<path d="M288.75,125.212c-0.227,0.738-0.539,1.632-0.936,2.681c-0.397,1.05-0.838,2.17-1.319,3.362
			c-0.482,1.191-0.994,2.425-1.531,3.702c-0.541,1.276-1.037,2.511-1.491,3.702c-0.625,1.589-1.291,3.106-2,4.553
			c-0.71,1.446-1.447,2.738-2.213,3.873c-0.765,1.135-1.575,2.042-2.425,2.722c-0.851,0.682-1.732,1.022-2.639,1.022
			c-1.078,0-2.029-0.468-2.852-1.404c-0.822-0.937-1.531-2.141-2.128-3.617c-0.595-1.475-1.105-3.106-1.531-4.894
			s-0.766-3.545-1.022-5.277c-0.255-1.73-0.455-3.319-0.595-4.766c-0.144-1.447-0.243-2.566-0.299-3.362
			c-0.34,1.249-0.893,2.781-1.659,4.596c-0.766,1.817-1.674,3.575-2.724,5.277c-1.05,1.702-2.242,3.164-3.575,4.383
			c-1.333,1.22-2.766,1.83-4.297,1.83c-1.987,0-3.675-0.454-5.064-1.361c-1.391-0.907-2.54-2.085-3.447-3.533
			c-0.909-1.447-1.575-3.049-2-4.808c-0.426-1.759-0.639-3.49-0.639-5.192c0-1.645,0.114-3.432,0.34-5.361
			c0.226-1.928,0.581-3.872,1.063-5.83c0.481-1.958,1.135-3.843,1.958-5.66c0.821-1.815,1.829-3.417,3.021-4.809
			c1.191-1.39,2.582-2.511,4.171-3.362c1.587-0.851,3.433-1.277,5.532-1.277c2.383,0,4.255,0.781,5.616,2.341
			c1.363,1.561,2.327,3.419,2.894,5.575l-1.447,0.51c-0.283-0.51-0.525-1.077-0.723-1.702c-0.199-0.624-0.44-1.192-0.724-1.703
			c-0.283-0.51-0.652-0.936-1.106-1.276c-0.455-0.341-1.078-0.511-1.872-0.511c-1.249,0-2.355,0.412-3.319,1.234
			c-0.966,0.823-1.802,1.887-2.511,3.191c-0.71,1.306-1.291,2.78-1.745,4.425c-0.455,1.646-0.824,3.277-1.107,4.894
			c-0.285,1.617-0.483,3.149-0.595,4.596c-0.115,1.447-0.171,2.625-0.171,3.532c0,0.795,0.014,1.83,0.043,3.106
			c0.028,1.277,0.184,2.511,0.467,3.702c0.284,1.191,0.737,2.213,1.363,3.064c0.623,0.852,1.531,1.277,2.723,1.277
			c1.305,0,2.469-0.737,3.49-2.213c1.021-1.475,1.928-3.333,2.723-5.575c0.794-2.241,1.517-4.652,2.171-7.234
			c0.651-2.581,1.261-4.992,1.828-7.234c0.567-2.241,1.107-4.099,1.619-5.575c0.511-1.475,1.048-2.213,1.617-2.213
			c1.587,0,2.936,0.583,4.043,1.745c1.106,1.163,1.659,2.54,1.659,4.127c0,2.61-0.071,5.221-0.213,7.83
			c-0.142,2.61-0.211,5.221-0.211,7.831c0,0.455,0,1.476,0,3.064c0,1.588,0.07,3.263,0.211,5.021
			c0.142,1.759,0.383,3.319,0.725,4.681c0.341,1.362,0.85,2.042,1.532,2.042c0.509,0,1.106-0.609,1.787-1.829
			c0.681-1.22,1.375-2.625,2.085-4.213c0.708-1.588,1.361-3.163,1.958-4.724c0.595-1.56,1.034-2.681,1.319-3.361l2.383-5.703
			L288.75,125.212z"/>
		<path d="M312.666,125.347c-0.966,1.982-2.171,3.965-3.618,5.948c-1.446,1.983-3.105,3.597-4.978,4.843
			c1.021,2.55,1.531,5.269,1.531,8.157c0,1.586-0.199,3.102-0.596,4.546c-0.398,1.445-1.007,2.719-1.83,3.823
			c-0.823,1.104-1.859,1.982-3.106,2.635c-1.248,0.651-2.752,0.977-4.511,0.977c-1.361,0-2.567-0.27-3.617-0.809
			c-1.051-0.54-1.923-1.248-2.617-2.127c-0.694-0.88-1.219-1.902-1.575-3.063c-0.355-1.163-0.532-2.397-0.532-3.702
			c0-0.907,0.169-1.746,0.511-2.511c0.341-0.767,0.766-1.475,1.277-2.128c0.509-0.652,1.076-1.277,1.703-1.873
			c0.623-0.596,1.218-1.177,1.787-1.745c-0.796-1.814-1.86-4-3.191-6.553c-1.333-2.553-2.645-5.177-3.935-7.873
			c-1.29-2.694-2.409-5.319-3.361-7.873c-0.952-2.553-1.428-4.736-1.428-6.553c0-1.304,0.297-2.566,0.894-3.787
			c0.595-1.219,1.361-2.298,2.297-3.234c0.936-0.937,2.014-1.688,3.233-2.256c1.219-0.566,2.455-0.851,3.704-0.851
			c1.304,0,2.581,0.205,3.828,0.612c1.248,0.408,2.355,0.989,3.321,1.744c0.964,0.755,1.729,1.673,2.297,2.75
			c0.567,1.079,0.851,2.327,0.851,3.745c0,0.511-0.042,1.192-0.128,2.042c-0.084,0.851-0.212,1.532-0.381,2.042l-1.619-0.084
			c0.341-1.078,0.497-2.184,0.469-3.32c-0.03-1.134-0.27-2.17-0.725-3.106c-0.455-0.936-1.12-1.702-2-2.298
			c-0.88-0.596-2.029-0.894-3.447-0.894c-1.418,0-2.425,0.553-3.021,1.657c-0.595,1.105-0.892,2.28-0.892,3.526
			c0,1.814,0.523,3.91,1.573,6.289c1.05,2.378,2.312,4.814,3.788,7.307c1.475,2.492,2.992,4.871,4.554,7.137
			c1.559,2.266,2.85,4.163,3.872,5.693c1.702-0.962,3.134-2.251,4.297-3.866s2.228-3.243,3.192-4.886L312.666,125.347z
			 M289.262,146.915c0,0.51,0.042,1.106,0.127,1.787c0.084,0.681,0.254,1.333,0.509,1.958c0.255,0.623,0.597,1.149,1.022,1.575
			c0.425,0.425,0.979,0.638,1.66,0.638c0.565,0,1.048-0.185,1.447-0.554c0.396-0.369,0.723-0.837,0.978-1.403
			c0.255-0.567,0.425-1.149,0.511-1.745c0.085-0.596,0.127-1.12,0.127-1.575c0-2.496-0.652-4.907-1.958-7.233
			c-0.569,0.227-1.106,0.583-1.617,1.063c-0.511,0.483-0.98,1.036-1.405,1.66c-0.425,0.625-0.767,1.276-1.022,1.957
			C289.389,145.723,289.262,146.349,289.262,146.915z"/>
		<path d="M337.432,125.347c-0.966,1.982-2.169,3.965-3.616,5.948c-1.447,1.983-3.107,3.597-4.979,4.843
			c1.021,2.55,1.532,5.269,1.532,8.157c0,1.586-0.199,3.102-0.596,4.546c-0.397,1.445-1.008,2.719-1.83,3.823
			c-0.822,1.104-1.858,1.982-3.106,2.635c-1.249,0.651-2.753,0.977-4.51,0.977c-1.363,0-2.568-0.27-3.618-0.809
			c-1.05-0.54-1.922-1.248-2.617-2.127c-0.694-0.88-1.219-1.902-1.574-3.063c-0.355-1.163-0.531-2.397-0.531-3.702
			c0-0.907,0.17-1.746,0.51-2.511c0.341-0.767,0.766-1.475,1.276-2.128c0.512-0.652,1.078-1.277,1.703-1.873
			c0.623-0.596,1.219-1.177,1.788-1.745c-0.796-1.814-1.86-4-3.193-6.553c-1.333-2.553-2.645-5.177-3.933-7.873
			c-1.29-2.694-2.409-5.319-3.362-7.873c-0.952-2.553-1.429-4.736-1.429-6.553c0-1.304,0.299-2.566,0.895-3.787
			c0.596-1.219,1.361-2.298,2.299-3.234c0.936-0.937,2.012-1.688,3.233-2.256c1.219-0.566,2.453-0.851,3.702-0.851
			c1.305,0,2.58,0.205,3.829,0.612c1.248,0.408,2.354,0.989,3.319,1.744c0.964,0.755,1.73,1.673,2.298,2.75
			c0.566,1.079,0.852,2.327,0.852,3.745c0,0.511-0.042,1.192-0.128,2.042c-0.086,0.851-0.213,1.532-0.383,2.042l-1.617-0.084
			c0.34-1.078,0.496-2.184,0.468-3.32c-0.028-1.134-0.27-2.17-0.723-3.106c-0.455-0.936-1.122-1.702-2-2.298
			c-0.88-0.596-2.029-0.894-3.446-0.894c-1.419,0-2.427,0.553-3.022,1.657c-0.596,1.105-0.894,2.28-0.894,3.526
			c0,1.814,0.523,3.91,1.574,6.289c1.05,2.378,2.312,4.814,3.788,7.307c1.476,2.492,2.992,4.871,4.553,7.137
			s2.852,4.163,3.872,5.693c1.702-0.962,3.135-2.251,4.299-3.866c1.162-1.614,2.226-3.243,3.191-4.886L337.432,125.347z
			 M314.027,146.915c0,0.51,0.042,1.106,0.128,1.787c0.085,0.681,0.255,1.333,0.511,1.958c0.255,0.623,0.595,1.149,1.021,1.575
			c0.426,0.425,0.979,0.638,1.659,0.638c0.566,0,1.05-0.185,1.446-0.554c0.397-0.369,0.725-0.837,0.98-1.403
			c0.253-0.567,0.425-1.149,0.509-1.745c0.086-0.596,0.128-1.12,0.128-1.575c0-2.496-0.652-4.907-1.956-7.233
			c-0.569,0.227-1.107,0.583-1.618,1.063c-0.512,0.483-0.979,1.036-1.403,1.66c-0.427,0.625-0.767,1.276-1.022,1.957
			C314.155,145.723,314.027,146.349,314.027,146.915z"/>
		<path d="M366.453,86.488c0-1.646,0.31-3.22,0.936-4.724c0.623-1.503,1.46-2.837,2.511-4c1.048-1.162,2.298-2.085,3.744-2.766
			c1.447-0.681,3.021-1.021,4.724-1.021c2.439,0,4.922,0.212,7.447,0.638c2.524,0.426,5.049,0.966,7.574,1.617
			c2.524,0.653,5.035,1.334,7.531,2.042c2.497,0.71,4.938,1.349,7.32,1.915c1.703-3.064,3.73-5.545,6.086-7.447
			c2.353-1.9,5.318-2.851,8.893-2.851c1.248,0,2.354,0.383,3.319,1.149c0.964,0.766,1.447,1.802,1.447,3.106
			c0,1.021-0.327,2.015-0.979,2.979c-0.652,0.966-1.49,1.859-2.511,2.681c-1.021,0.823-2.143,1.532-3.362,2.128
			s-2.369,1.036-3.447,1.319c-0.454,0.114-0.88,0.228-1.275,0.34c-0.398,0.114-0.767,0.17-1.107,0.17
			c-0.113,0.455-0.184,0.852-0.212,1.192c-0.029,0.34-0.1,0.738-0.213,1.191c-0.285,1.646-0.553,3.461-0.809,5.447
			c-0.256,1.987-0.497,4.015-0.725,6.085c-0.227,2.072-0.454,4.1-0.681,6.085c-0.227,1.987-0.454,3.802-0.681,5.447h1.022
			c0.681,0,1.417-0.013,2.213-0.042c0.793-0.028,1.573-0.141,2.339-0.34c0.767-0.198,1.476-0.481,2.128-0.851
			c0.652-0.368,1.178-0.894,1.575-1.575h2.043c-0.796,1.306-1.66,2.298-2.597,2.979c-0.936,0.681-1.886,1.163-2.85,1.446
			c-1.08,0.285-2.144,0.397-3.193,0.341c-1.05-0.056-2.029,0-2.936,0.17c-0.228,1.646-0.497,3.787-0.809,6.426
			c-0.312,2.638-0.71,5.546-1.191,8.723c-0.482,3.178-1.078,6.54-1.788,10.085c-0.709,3.546-1.547,7.051-2.511,10.512
			c-0.964,3.46-2.084,6.766-3.361,9.915c-1.276,3.148-2.737,5.915-4.383,8.297c-1.646,2.383-3.504,4.284-5.574,5.703
			c-2.072,1.417-4.383,2.127-6.937,2.127c-2.042,0-3.76-0.526-5.149-1.573c-1.391-1.05-2.511-2.341-3.361-3.873
			c-0.852-1.533-1.462-3.223-1.83-5.066c-0.369-1.844-0.553-3.617-0.553-5.319c0-0.966,0.057-2.157,0.17-3.574
			c0.113-1.419,0.325-2.822,0.639-4.213c0.312-1.389,0.751-2.708,1.319-3.958c0.566-1.248,1.277-2.184,2.127-2.808l0.851,1.191
			c-0.509,0.966-0.964,1.887-1.361,2.766c-0.396,0.88-0.723,1.83-0.978,2.85c-0.256,1.022-0.441,2.142-0.554,3.363
			c-0.115,1.22-0.171,2.681-0.171,4.383c0,0.964,0.086,2.156,0.256,3.575c0.169,1.417,0.496,2.794,0.979,4.127
			c0.481,1.333,1.134,2.482,1.956,3.447c0.822,0.964,1.916,1.447,3.277,1.447s2.652-0.723,3.871-2.166
			c1.22-1.446,2.355-3.373,3.405-5.779c1.05-2.409,2.043-5.185,2.979-8.33c0.936-3.143,1.786-6.416,2.553-9.815
			c0.767-3.398,1.475-6.812,2.127-10.241c0.653-3.428,1.206-6.628,1.661-9.604c0.453-2.973,0.85-5.594,1.191-7.861
			c0.339-2.266,0.595-3.967,0.766-5.1l-6.554-0.255c-1.136,0-2.199,0.285-3.191,0.851c-0.993,0.568-1.859,1.276-2.596,2.128h-1.958
			c0.794-1.703,2-2.964,3.618-3.788c1.616-0.822,3.331-1.234,5.148-1.234l6.042,0.255c0.341-1.815,0.682-3.9,1.021-6.256
			c0.341-2.354,0.725-4.766,1.149-7.234c0.426-2.468,0.895-4.865,1.403-7.191c0.511-2.326,1.107-4.341,1.788-6.043
			c-2.724-0.624-5.234-1.29-7.532-2c-2.297-0.709-4.44-1.319-6.426-1.83c-2.895-0.737-5.489-1.319-7.788-1.745
			c-2.297-0.425-4.582-0.638-6.85-0.638c-1.307,0-2.568,0.27-3.788,0.809c-1.221,0.54-2.297,1.264-3.234,2.17
			c-0.937,0.908-1.688,1.972-2.256,3.191c-0.566,1.221-0.85,2.51-0.85,3.873c0,1.929,0.538,3.519,1.616,4.766
			c1.078,1.249,2.608,1.872,4.597,1.872l2.553-0.17l0.596,1.788l-2.213,0.255c-2.553,0-4.724-0.667-6.511-2
			C367.346,91.241,366.453,89.211,366.453,86.488z M423.815,71.935c-0.682,0-1.349,0.242-2.001,0.723
			c-0.653,0.483-1.264,1.064-1.829,1.745c-0.568,0.68-1.079,1.391-1.532,2.127c-0.455,0.738-0.822,1.361-1.105,1.873
			c-0.285,0.567-0.526,1.093-0.725,1.574c-0.199,0.483-0.439,1.008-0.723,1.575c0.283-0.056,0.639-0.113,1.063-0.17
			c0.426-0.056,0.864-0.141,1.319-0.255c0.851-0.283,1.715-0.666,2.595-1.149c0.88-0.481,1.702-1.021,2.469-1.617
			c0.767-0.596,1.39-1.248,1.872-1.958c0.481-0.708,0.725-1.404,0.725-2.085c0-0.681-0.172-1.247-0.511-1.702
			C425.091,72.162,424.553,71.935,423.815,71.935z"/>
		<path d="M449.432,123.595c0,1.135-0.058,2.199-0.171,3.191c-0.115,0.994-0.285,2.029-0.513,3.106c1.816,0,3.393-0.454,4.726-1.362
			c1.333-0.906,2.539-2.013,3.618-3.319l1.956,0.085c-1.248,1.703-2.78,3.233-4.595,4.596c-1.817,1.362-3.917,2.042-6.303,2.042
			c-0.627,1.477-1.395,3.135-2.304,4.979c-0.911,1.844-1.964,3.56-3.16,5.149c-1.195,1.589-2.576,2.922-4.14,4
			c-1.565,1.079-3.314,1.617-5.251,1.617c-2.846,0-5.051-0.708-6.616-2.127c-1.565-1.417-2.718-3.191-3.457-5.319
			c-0.74-2.127-1.196-4.411-1.366-6.852c-0.17-2.439-0.256-4.708-0.256-6.809c0-0.566,0.07-1.39,0.214-2.468
			c0.14-1.078,0.339-2.241,0.595-3.49c0.256-1.248,0.567-2.524,0.937-3.83c0.368-1.305,0.808-2.481,1.318-3.532
			c0.511-1.049,1.078-1.915,1.703-2.596c0.624-0.681,1.305-1.021,2.043-1.021c0.511,0,1.021,0.213,1.531,0.639
			c0.511,0.425,0.979,0.936,1.404,1.532c0.426,0.596,0.809,1.221,1.149,1.873c0.34,0.653,0.565,1.178,0.681,1.574
			c-0.115-1.134-0.157-2.341-0.127-3.617c0.027-1.276,0.241-2.453,0.64-3.532c0.398-1.077,1.013-1.971,1.84-2.681
			c0.827-0.709,1.98-1.063,3.465-1.063c2.053,0,3.751,0.723,5.092,2.17c1.34,1.447,2.409,3.178,3.207,5.191
			c0.797,2.015,1.354,4.115,1.668,6.299C449.274,120.205,449.432,122.062,449.432,123.595z M446.027,131.595
			c-6.526-3.12-10.724-8.198-12.596-15.235v0.086c-0.683,2.157-1.191,4.297-1.532,6.425c-0.342,2.127-0.512,4.384-0.512,6.767
			c0,0.737,0.044,1.886,0.128,3.447c0.086,1.561,0.298,3.135,0.639,4.723c0.341,1.589,0.822,2.979,1.447,4.17
			c0.623,1.191,1.503,1.787,2.639,1.787c1.076,0,2.141-0.468,3.19-1.404s2-2.071,2.853-3.405c0.85-1.332,1.601-2.68,2.255-4.042
			C445.189,133.552,445.686,132.446,446.027,131.595z M435.048,112.871c0,1.817,0.298,3.589,0.895,5.319
			c0.595,1.732,1.417,3.334,2.467,4.809c1.05,1.476,2.283,2.795,3.702,3.957c1.418,1.165,2.95,2.058,4.597,2.682
			c0.341-0.964,0.539-2,0.597-3.107c0.054-1.106,0.084-2.17,0.084-3.191c0-1.191-0.128-2.737-0.384-4.638
			c-0.255-1.9-0.71-3.773-1.361-5.617c-0.652-1.843-1.519-3.418-2.596-4.724c-1.078-1.305-2.411-1.958-4-1.958
			c-0.966,0-1.702,0.2-2.213,0.596c-0.51,0.398-0.908,0.909-1.191,1.532c-0.284,0.625-0.455,1.319-0.51,2.085
			C435.076,111.382,435.048,112.135,435.048,112.871z"/>
		<path d="M480.752,123.595c0,1.135-0.058,2.199-0.172,3.191c-0.115,0.994-0.285,2.029-0.513,3.106c1.816,0,3.393-0.454,4.726-1.362
			c1.334-0.906,2.539-2.013,3.618-3.319l1.956,0.085c-1.247,1.703-2.779,3.233-4.594,4.596c-1.818,1.362-3.918,2.042-6.304,2.042
			c-0.626,1.477-1.394,3.135-2.304,4.979c-0.911,1.844-1.964,3.56-3.16,5.149c-1.194,1.589-2.576,2.922-4.14,4
			c-1.565,1.079-3.314,1.617-5.25,1.617c-2.846,0-5.052-0.708-6.616-2.127c-1.565-1.417-2.718-3.191-3.458-5.319
			s-1.196-4.411-1.366-6.852c-0.17-2.439-0.255-4.708-0.255-6.809c0-0.566,0.069-1.39,0.213-2.468
			c0.141-1.078,0.34-2.241,0.595-3.49c0.256-1.248,0.567-2.524,0.937-3.83c0.369-1.305,0.809-2.481,1.319-3.532
			c0.511-1.049,1.077-1.915,1.702-2.596s1.306-1.021,2.044-1.021c0.511,0,1.02,0.213,1.53,0.639
			c0.511,0.425,0.979,0.936,1.405,1.532c0.425,0.596,0.809,1.221,1.149,1.873c0.34,0.653,0.565,1.178,0.681,1.574
			c-0.115-1.134-0.157-2.341-0.128-3.617c0.028-1.276,0.241-2.453,0.641-3.532c0.398-1.077,1.012-1.971,1.839-2.681
			c0.827-0.709,1.981-1.063,3.466-1.063c2.053,0,3.75,0.723,5.091,2.17c1.34,1.447,2.41,3.178,3.207,5.191
			c0.798,2.015,1.355,4.115,1.668,6.299C480.595,120.205,480.752,122.062,480.752,123.595z M477.347,131.595
			c-6.525-3.12-10.724-8.198-12.596-15.235v0.086c-0.682,2.157-1.191,4.297-1.532,6.425c-0.341,2.127-0.511,4.384-0.511,6.767
			c0,0.737,0.044,1.886,0.128,3.447c0.085,1.561,0.297,3.135,0.639,4.723c0.341,1.589,0.822,2.979,1.446,4.17
			c0.623,1.191,1.503,1.787,2.639,1.787c1.076,0,2.142-0.468,3.191-1.404s2-2.071,2.852-3.405c0.851-1.332,1.602-2.68,2.255-4.042
			C476.509,133.552,477.006,132.446,477.347,131.595z M466.368,112.871c0,1.817,0.298,3.589,0.894,5.319
			c0.596,1.732,1.418,3.334,2.468,4.809c1.05,1.476,2.283,2.795,3.702,3.957c1.417,1.165,2.949,2.058,4.596,2.682
			c0.341-0.964,0.539-2,0.597-3.107c0.055-1.106,0.084-2.17,0.084-3.191c0-1.191-0.128-2.737-0.383-4.638
			c-0.256-1.9-0.71-3.773-1.361-5.617c-0.652-1.843-1.519-3.418-2.597-4.724c-1.077-1.305-2.411-1.958-3.999-1.958
			c-0.966,0-1.703,0.2-2.214,0.596c-0.509,0.398-0.908,0.909-1.191,1.532c-0.283,0.625-0.455,1.319-0.509,2.085
			C466.396,111.382,466.368,112.135,466.368,112.871z"/>
		<path d="M538.709,125.212c-0.227,0.796-0.553,1.788-0.979,2.979c-0.425,1.191-0.922,2.524-1.489,4
			c-0.566,1.477-1.205,3.036-1.914,4.681c-0.71,1.646-1.435,3.264-2.171,4.851c-0.794,1.646-1.616,3.221-2.467,4.724
			c-0.853,1.504-1.718,2.823-2.597,3.958c-0.88,1.134-1.802,2.042-2.766,2.723c-0.966,0.681-1.958,1.021-2.979,1.021
			c-1.646,0-3.094-0.638-4.34-1.914c-1.249-1.277-2.341-2.794-3.276-4.554c-0.937-1.757-1.703-3.587-2.299-5.488
			c-0.596-1.901-1.036-3.475-1.319-4.724c-0.455,1.532-1.021,2.994-1.701,4.383c-0.682,1.391-1.505,2.61-2.469,3.66
			c-0.966,1.05-2.115,1.872-3.446,2.468c-1.335,0.596-2.882,0.893-4.639,0.893c-3.179,0-5.689-0.777-7.532-2.334
			c-1.846-1.558-3.234-3.498-4.171-5.819c-0.936-2.322-1.531-4.87-1.786-7.646c-0.256-2.775-0.383-5.352-0.383-7.731
			c0-2.718,0.438-5.364,1.318-7.941c0.879-2.577,2.141-4.87,3.787-6.88c1.645-2.011,3.63-3.624,5.957-4.842
			c2.327-1.218,4.938-1.827,7.831-1.827c0.851,0,1.715,0.083,2.595,0.246s1.717,0.436,2.511,0.816
			c0.228-1.53,0.471-3.599,0.726-6.207c0.256-2.606,0.612-5.412,1.068-8.416c0.455-3.004,1.025-6.065,1.709-9.183
			s1.566-5.936,2.649-8.459c1.082-2.521,2.406-4.576,3.973-6.164c1.567-1.586,3.434-2.38,5.598-2.38
			c1.141,0,2.065,0.312,2.779,0.936c0.71,0.624,1.266,1.403,1.665,2.338c0.399,0.935,0.669,1.94,0.812,3.018
			c0.143,1.077,0.215,2.041,0.215,2.891c0,3.062-0.272,6.32-0.814,9.777c-0.543,3.458-1.343,6.887-2.4,10.289
			c-1.058,3.401-2.356,6.66-3.898,9.777c-1.544,3.117-3.314,5.867-5.312,8.247c0,0.907,0.042,2.438,0.127,4.592
			c0.085,2.155,0.24,4.563,0.468,7.227c0.226,2.665,0.524,5.442,0.894,8.333c0.368,2.891,0.837,5.527,1.405,7.908
			c0.565,2.38,1.246,4.336,2.042,5.865c0.794,1.53,1.73,2.295,2.808,2.295c0.681,0,1.434-0.468,2.256-1.404s1.66-2.127,2.511-3.575
			c0.852-1.447,1.702-3.049,2.554-4.809c0.851-1.758,1.617-3.46,2.298-5.106c0.681-1.645,1.262-3.134,1.744-4.468
			c0.481-1.333,0.809-2.312,0.979-2.936L538.709,125.212z M502.452,143.595c1.248,0,2.299-0.454,3.149-1.361
			c0.852-0.907,1.532-2,2.043-3.277c0.512-1.276,0.865-2.608,1.064-4c0.197-1.389,0.297-2.567,0.297-3.532
			c0-3.46-0.185-6.894-0.553-10.298c-0.37-3.404-0.553-6.836-0.553-10.298c0-0.737-0.016-1.417-0.044-2.042
			c-0.027-0.624-0.155-1.149-0.383-1.574c-0.228-0.426-0.595-0.751-1.105-0.979c-0.511-0.226-1.222-0.34-2.128-0.34
			c-1.816,0-3.361,0.795-4.639,2.383c-1.276,1.589-2.312,3.462-3.106,5.617c-0.795,2.157-1.376,4.384-1.745,6.681
			c-0.369,2.298-0.553,4.127-0.553,5.489c0,1.136,0.141,2.695,0.426,4.681c0.283,1.987,0.736,3.93,1.361,5.83
			c0.624,1.902,1.475,3.546,2.554,4.937C499.614,142.901,500.921,143.595,502.452,143.595z M527.306,73.637
			c0-0.226-0.016-0.694-0.044-1.404c-0.029-0.709-0.084-1.418-0.17-2.128c-0.086-0.709-0.228-1.347-0.425-1.915
			c-0.199-0.567-0.469-0.852-0.809-0.852c-0.568,0-1.207,0.61-1.916,1.83c-0.71,1.221-1.391,2.61-2.042,4.17
			c-0.654,1.561-1.221,3.078-1.702,4.553c-0.482,1.477-0.78,2.498-0.894,3.064c-1.136,4.426-1.845,8.979-2.128,13.66
			c-0.285,4.681-0.482,9.319-0.597,13.915c1.589-1.872,3.05-4.283,4.385-7.234c1.331-2.95,2.467-6.056,3.403-9.319
			c0.936-3.262,1.66-6.511,2.171-9.745C527.05,78.999,527.306,76.134,527.306,73.637z"/>
	</g>
	<g>
		<path d="M73.659,98.037c-1.668,1.715-3.532,2.608-4.166,1.991c-0.634-0.616,0.206-2.505,1.874-4.22
			c1.666-1.715,4.058-2.095,4.165-1.992C75.64,93.92,75.328,96.321,73.659,98.037z"/>
		<path d="M90.089,98.037c-1.668,1.715-3.533,2.608-4.166,1.991c-0.634-0.616,0.206-2.505,1.874-4.22
			c1.666-1.715,4.058-2.095,4.165-1.992C92.069,93.92,91.757,96.321,90.089,98.037z"/>
		<path d="M106.518,98.037c-1.668,1.715-3.533,2.608-4.166,1.991c-0.634-0.616,0.206-2.505,1.874-4.22
			c1.666-1.715,4.058-2.095,4.165-1.992C108.498,93.92,108.186,96.321,106.518,98.037z"/>
	</g>
</g>
</svg>
